<?xml version="1.0" standalone="no"?>
<!DOCTYPE svg PUBLIC "-//W3C//DTD SVG 20010904//EN"
 "http://www.w3.org/TR/2001/REC-SVG-20010904/DTD/svg10.dtd">
<svg version="1.0" xmlns="http://www.w3.org/2000/svg"
 width="512.000000pt" height="512.000000pt" viewBox="0 0 512.000000 512.000000"
 preserveAspectRatio="xMidYMid meet">
<metadata>
Created by potrace 1.14, written by Peter Selinger 2001-2017
</metadata>
<g transform="translate(0.000000,512.000000) scale(0.100000,-0.100000)"
fill="#000000" stroke="none">
<path d="M0 2560 l0 -2560 2560 0 2560 0 0 2560 0 2560 -2560 0 -2560 0 0
-2560z m2520 916 c0 -2 -7 -7 -16 -10 -8 -3 -12 -2 -9 4 6 10 25 14 25 6z m40
0 c0 -3 -4 -8 -10 -11 -5 -3 -10 -1 -10 4 0 6 5 11 10 11 6 0 10 -2 10 -4z
m67 -18 c4 10 9 9 20 -5 12 -15 14 -15 9 -1 -4 14 -2 15 22 2 37 -19 64 -18
38 1 -11 8 -15 15 -8 15 7 0 17 -9 24 -20 14 -22 30 -27 26 -9 -2 6 3 14 10
16 7 3 10 -1 6 -11 -4 -11 2 -17 23 -21 15 -4 41 -11 57 -16 37 -12 55 -11 36
1 -12 7 -10 9 7 7 12 0 21 -5 20 -11 -2 -9 68 -48 156 -86 26 -11 47 -25 47
-31 0 -7 11 -9 28 -5 16 4 22 3 14 -2 -9 -6 -6 -14 12 -31 18 -17 26 -19 31
-10 5 8 4 10 -3 5 -8 -5 -10 -2 -6 9 9 23 19 6 23 -40 1 -5 6 -3 11 5 9 13 10
13 10 0 1 -18 46 -71 63 -74 17 -3 54 -25 41 -26 -5 0 -15 5 -22 12 -24 24
-11 -5 20 -46 17 -22 33 -43 35 -46 2 -2 9 2 14 10 8 12 9 10 4 -7 -4 -15 0
-25 12 -32 10 -6 14 -11 10 -11 -5 0 -5 -5 -1 -11 4 -8 9 -7 16 2 6 10 7 7 3
-10 -5 -17 -4 -22 5 -16 9 5 11 4 6 -3 -4 -7 -4 -17 0 -23 5 -8 9 -8 14 1 5 8
10 3 14 -14 4 -15 11 -24 16 -21 6 3 7 -1 4 -10 -4 -8 -1 -22 6 -30 8 -9 8
-15 2 -15 -6 0 -16 16 -22 35 -6 19 -16 35 -21 35 -5 0 -6 -7 0 -17 17 -35 30
-69 42 -112 10 -32 15 -39 19 -26 4 10 7 -14 7 -53 0 -71 14 -108 36 -95 6 3
7 1 3 -6 -4 -6 -11 -9 -16 -6 -4 3 -10 0 -12 -7 -6 -18 3 -58 13 -58 5 0 9 -4
9 -10 0 -5 -6 -7 -13 -4 -19 7 -16 -68 4 -93 13 -16 13 -17 -3 -4 -10 7 -18
11 -18 7 0 -7 0 -7 -11 -56 -5 -23 -4 -37 4 -42 9 -5 8 -10 -2 -20 -11 -11
-13 -11 -6 1 5 9 3 12 -6 9 -8 -3 -14 -9 -14 -14 -1 -17 -28 -89 -38 -101 -5
-7 -6 -13 -1 -13 5 0 5 -4 -1 -8 -5 -4 -18 -22 -28 -41 -14 -27 -15 -36 -5
-42 12 -8 4 -13 -15 -10 -5 1 -6 -9 -2 -21 4 -15 3 -18 -3 -10 -11 16 -87 -63
-76 -80 5 -7 3 -8 -6 -3 -10 6 -12 0 -8 -23 2 -17 1 -29 -4 -26 -4 3 -8 15 -8
27 -1 22 -1 22 -12 2 -6 -11 -17 -24 -25 -28 -7 -5 -11 -13 -7 -18 3 -5 2 -9
-3 -8 -21 4 -33 -2 -33 -16 0 -8 -3 -14 -8 -12 -4 1 -9 -2 -11 -8 -2 -5 -17
-15 -33 -22 -28 -12 -63 -41 -63 -52 0 -3 -11 -6 -26 -7 -14 -1 -40 -9 -58
-19 -27 -13 -31 -19 -20 -27 10 -7 8 -8 -8 -3 -12 3 -36 -1 -53 -10 -18 -9
-41 -18 -53 -21 -11 -2 -23 -7 -26 -11 -3 -5 -22 -9 -41 -10 -66 -2 -64 -1
-49 -20 11 -15 11 -16 -1 -5 -20 17 -50 15 -50 -4 0 -12 -4 -14 -12 -6 -21 16
-88 20 -88 5 0 -15 -16 -17 -25 -3 -11 18 -55 12 -56 -7 -1 -15 -2 -16 -6 -2
-3 11 -16 17 -41 18 -20 0 -48 2 -62 4 -14 1 -35 -3 -47 -11 -21 -13 -22 -12
-18 8 3 16 0 20 -13 18 -9 -3 -16 -10 -14 -17 1 -7 -2 -10 -7 -6 -6 3 -8 12
-4 20 4 11 -3 15 -26 15 -17 0 -33 0 -36 0 -2 1 -30 12 -60 25 -62 28 -79 31
-69 13 3 -7 -4 -1 -17 14 -13 14 -35 29 -49 33 -20 5 -22 4 -10 -5 13 -10 13
-11 0 -7 -8 2 -15 9 -15 16 0 15 -33 41 -53 41 -8 0 -10 -5 -6 -12 4 -8 3 -10
-2 -5 -5 5 -10 13 -10 18 -1 5 -2 14 -3 20 0 5 -5 8 -9 5 -5 -3 -14 3 -22 14
-7 10 -19 16 -27 13 -8 -3 -13 0 -11 8 2 8 -7 15 -22 17 -14 2 -29 8 -35 14
-7 8 -6 8 4 3 9 -5 12 -3 9 6 -3 8 -13 13 -22 13 -9 -1 -16 2 -16 6 0 5 -6 10
-12 13 -7 2 -5 3 5 2 9 -2 17 1 17 6 0 5 -7 9 -17 9 -9 0 -14 3 -10 6 3 4 1
12 -6 19 -28 29 -53 62 -66 88 -8 15 -18 27 -23 27 -5 0 -7 -4 -4 -8 3 -5 -1
-9 -9 -9 -11 0 -12 4 -4 13 13 16 -9 55 -30 51 -7 -1 -15 6 -17 16 -2 15 0 16
12 6 20 -17 28 -5 9 14 -8 9 -16 27 -17 41 -1 14 -5 26 -9 26 -6 0 -25 61 -35
108 -5 28 -14 43 -22 38 -5 -3 -9 1 -9 9 0 8 4 12 9 9 4 -3 8 6 8 19 0 14 -7
27 -15 31 -21 8 -19 26 3 27 16 1 16 2 0 6 -11 3 -18 13 -17 26 0 12 3 16 6
10 11 -28 21 -10 20 36 -1 35 -5 47 -14 44 -7 -3 -13 0 -13 6 0 6 8 11 18 12
11 0 12 2 4 6 -10 4 -9 9 5 20 17 14 17 14 -1 8 -19 -5 -19 -5 -4 12 9 10 22
38 28 63 10 43 18 72 19 78 3 7 -5 17 -12 14 -5 -1 -6 2 -2 8 3 6 11 7 17 4 7
-5 9 -1 5 9 -4 10 -1 17 6 17 7 1 22 22 35 49 27 58 28 68 5 50 -16 -13 -17
-12 -4 4 8 9 16 15 19 13 7 -8 71 67 72 83 0 11 -3 11 -17 0 -16 -13 -17 -12
-5 3 8 9 20 14 28 11 10 -4 14 -1 13 8 -2 8 3 24 10 37 10 18 15 21 26 12 11
-9 17 -6 29 13 9 13 27 30 41 37 14 8 29 27 34 44 5 17 10 23 10 13 1 -16 3
-16 32 -2 21 11 29 21 25 32 -5 13 -4 14 9 3 8 -7 15 -8 15 -2 0 13 81 53 93
45 6 -3 7 -1 3 5 -4 7 -2 12 4 12 6 0 8 6 4 13 -5 9 -4 9 5 1 9 -9 22 -7 49 7
20 10 66 25 102 33 36 9 74 19 85 22 11 3 28 6 38 6 11 -1 15 4 10 11 -5 9 -2
8 9 0 8 -7 18 -10 21 -7 4 4 40 6 82 6 52 -1 75 3 75 11 0 7 4 6 11 -3 8 -12
12 -12 16 -2z m-342 -18 c3 -5 1 -10 -4 -10 -6 0 -11 5 -11 10 0 6 2 10 4 10
3 0 8 -4 11 -10z m749 -71 c3 -3 -4 -5 -14 -6 -11 -1 -22 2 -25 8 -6 9 30 7
39 -2z m-979 -29 c-3 -5 -11 -10 -16 -10 -6 0 -7 5 -4 10 3 6 11 10 16 10 6 0
7 -4 4 -10z m1035 -11 c0 -6 -4 -7 -10 -4 -5 3 -10 11 -10 16 0 6 5 7 10 4 6
-3 10 -11 10 -16z m-1220 -113 c0 -2 -6 -9 -14 -15 -11 -9 -16 -9 -22 0 -4 7
-3 9 4 5 6 -3 13 -2 17 4 6 10 15 14 15 6z m1400 -6 c0 -5 -4 -10 -10 -10 -5
0 -10 5 -10 10 0 6 5 10 10 10 6 0 10 -4 10 -10z m-1536 -145 c3 -8 1 -15 -4
-15 -6 0 -10 7 -10 15 0 8 2 15 4 15 2 0 6 -7 10 -15z m-71 -122 c-4 -10 -13
-25 -22 -33 -13 -13 -13 -13 -8 0 4 8 10 23 13 33 4 9 10 17 15 17 5 0 5 -8 2
-17z m1867 -107 c0 -2 -7 -7 -16 -10 -8 -3 -12 -2 -9 4 6 10 25 14 25 6z
m-1915 -15 c3 -5 1 -12 -5 -16 -5 -3 -10 1 -10 9 0 18 6 21 15 7z m-17 -76
c-3 -3 -9 2 -12 12 -6 14 -5 15 5 6 7 -7 10 -15 7 -18z m-30 -170 c-3 -3 -9 2
-12 12 -6 14 -5 15 5 6 7 -7 10 -15 7 -18z m2002 -18 c0 -5 -4 -5 -10 -2 -5 3
-10 14 -10 23 0 15 2 15 10 2 5 -8 10 -19 10 -23z m-1990 -97 c0 -5 -2 -10 -4
-10 -3 0 -8 5 -11 10 -3 6 -1 10 4 10 6 0 11 -4 11 -10z m1965 -60 c3 -5 1
-10 -4 -10 -6 0 -11 5 -11 10 0 6 2 10 4 10 3 0 8 -4 11 -10z m-1962 -15 c4
-8 2 -17 -2 -20 -5 -2 -11 4 -14 15 -6 23 8 27 16 5z m22 -56 c10 -30 0 -33
-13 -4 -6 14 -7 25 -2 25 5 0 12 -9 15 -21z m13 -62 c-1 -2 3 -11 11 -20 17
-22 8 -22 -13 -1 -9 8 -13 20 -10 25 3 6 8 8 11 5 2 -2 3 -6 1 -9z m162 -269
c9 -20 9 -21 -2 -7 -7 9 -20 18 -28 22 -12 4 -12 6 2 6 10 1 22 -9 28 -21z
m241 -205 c13 -16 12 -17 -3 -4 -10 7 -18 15 -18 17 0 8 8 3 21 -13z m950 -76
c-13 -13 -26 -3 -16 12 3 6 11 8 17 5 6 -4 6 -10 -1 -17z m-51 -17 c0 -5 -2
-10 -4 -10 -3 0 -8 5 -11 10 -3 6 -1 10 4 10 6 0 11 -4 11 -10z m-75 -20 c3
-5 1 -10 -4 -10 -6 0 -11 5 -11 10 0 6 2 10 4 10 3 0 8 -4 11 -10z m-281 -36
c3 -8 2 -12 -4 -9 -6 3 -10 10 -10 16 0 14 7 11 14 -7z m-44 0 c0 -8 -19 -13
-24 -6 -3 5 1 9 9 9 8 0 15 -2 15 -3z"/>
<path d="M1802 3140 c-8 -13 -8 -20 -2 -20 6 0 13 7 17 15 9 24 -1 27 -15 5z"/>
</g>
</svg>
