<?xml version="1.0" encoding="utf-8"?>
<!-- Generator: Adobe Illustrator 28.1.0, SVG Export Plug-In . SVG Version: 6.00 Build 0)  -->
<svg version="1.1" id="Layer_1" xmlns="http://www.w3.org/2000/svg" xmlns:xlink="http://www.w3.org/1999/xlink" x="0px" y="0px"
	 viewBox="0 0 100 100" style="enable-background:new 0 0 100 100;" xml:space="preserve">
<path d="M60.8,22.3c-0.6,0.6-0.6,1.5,0,2.1L86.4,50L60.8,75.6c-0.6,0.6-0.6,1.5,0,2.1c0.6,0.6,1.5,0.6,2.1,0L89.6,51
	c0.3-0.3,0.4-0.7,0.4-1s-0.2-0.8-0.4-1L62.9,22.3C62.3,21.7,61.4,21.7,60.8,22.3z" fill="#FFFFFF"/>
<path d="M39.2,22.3c0.6,0.6,0.6,1.5,0,2.1L13.6,50l25.6,25.6c0.6,0.6,0.6,1.5,0,2.1c-0.6,0.6-1.5,0.6-2.1,0L10.4,51
	c-0.3-0.3-0.4-0.7-0.4-1s0.2-0.8,0.4-1l26.7-26.7C37.7,21.7,38.6,21.7,39.2,22.3z" fill="#FFFFFF"/>
</svg>
